<?xml version="1.0" standalone="no"?>
<!DOCTYPE svg PUBLIC "-//W3C//DTD SVG 20010904//EN"
 "http://www.w3.org/TR/2001/REC-SVG-20010904/DTD/svg10.dtd">
<svg version="1.0" xmlns="http://www.w3.org/2000/svg"
 width="700.000000pt" height="700.000000pt" viewBox="0 0 700.000000 700.000000"
 preserveAspectRatio="xMidYMid meet">
<metadata>
Created by potrace 1.11, written by Peter Selinger 2001-2013
</metadata>
<g transform="translate(0.000000,700.000000) scale(0.100000,-0.100000)"
fill="#000000" stroke="none">
<path d="M161 6974 c-18 -14 -37 -36 -43 -48 -10 -16 -13 -798 -13 -3415 0
-3383 0 -3393 20 -3429 11 -20 35 -45 54 -55 33 -20 73 -20 3286 -20 3140 0
3255 1 3282 18 15 10 33 24 39 30 40 39 38 -95 39 3444 0 3112 -1 3388 -16
3421 -9 21 -30 47 -47 58 l-30 22 -3270 0 -3270 0 -31 -26z m973 -3456 c-1
-1762 -2 -3208 -3 -3213 -1 -7 -124 -11 -371 -11 l-370 0 0 3213 0 3213 373 0
372 0 -1 -3202z m5403 -8 c0 -1766 -3 -3211 -6 -3211 -3 -1 -1155 -2 -2558 -3
l-2553 -2 0 3213 0 3213 2558 0 2559 0 0 -3210z"/>
<path d="M2195 6128 c-45 -74 -131 -190 -171 -233 -83 -88 -263 -203 -425
-272 l-89 -37 29 -31 c15 -16 33 -38 38 -48 8 -15 21 -11 133 45 69 35 127 64
130 66 9 4 4 -356 -5 -403 -27 -149 -123 -284 -254 -358 -39 -22 -41 -26 -22
-32 12 -3 34 -20 50 -37 28 -30 31 -31 53 -16 79 52 159 145 233 272 7 12 9
-39 7 -162 l-2 -180 57 1 58 2 0 40 0 40 308 3 307 2 0 -43 0 -43 50 0 c38 0
50 4 51 16 4 43 5 367 1 378 -3 9 -94 12 -409 12 l-405 0 7 28 c9 35 13 55 14
67 1 6 128 10 363 9 200 0 370 3 378 7 13 6 15 40 14 216 l-1 209 66 -32 c36
-17 88 -39 115 -49 45 -17 49 -17 58 -2 5 9 23 31 41 47 18 17 28 30 22 28
-15 -3 -78 19 -190 69 -140 62 -274 154 -375 260 -118 122 -115 117 -94 148
20 30 22 26 -41 51 -27 10 -53 20 -56 22 -3 1 -23 -26 -44 -60z m136 -197 c79
-80 191 -174 278 -231 33 -22 61 -42 61 -43 0 -2 -292 0 -315 2 -5 1 -3 6 5
11 12 8 9 15 -20 46 -48 51 -121 124 -153 153 l-27 24 -39 -44 c-50 -57 -65
-44 -17 14 24 29 43 44 54 41 11 -3 30 13 56 46 22 28 41 50 44 50 3 0 36 -31
73 -69z m-170 -197 c38 -37 67 -70 65 -73 -3 -5 -251 -6 -314 -2 -8 1 8 17 35
38 26 20 66 51 87 70 22 18 44 33 49 33 5 0 40 -30 78 -66z m-285 -89 c-10 -8
-23 -12 -28 -9 -14 9 -2 19 24 21 22 2 22 1 4 -12z m711 -100 c3 -67 25 -63
-322 -62 l-315 0 0 42 c0 23 3 45 7 48 4 4 146 6 317 5 l311 -3 2 -30z m-4
-149 c2 -6 3 -31 3 -56 l-1 -45 -318 -2 -317 -2 0 58 0 57 315 0 c211 0 316
-3 318 -10z m47 -446 l0 -80 -120 0 c-66 -1 -176 -1 -245 -1 -69 0 -154 0
-190 1 l-65 0 0 80 0 80 310 0 310 0 0 -80z"/>
<path d="M3390 6050 l0 -140 -153 0 -154 0 0 -35 0 -34 154 2 153 2 0 -137 c0
-103 -3 -138 -12 -139 -7 -1 -66 -1 -130 0 -72 0 -118 -3 -119 -9 -2 -13 -2
-48 0 -57 1 -7 165 -7 613 -3 12 0 16 9 16 34 l0 34 -131 -2 -132 -1 -2 132
c-1 91 2 135 10 140 6 4 77 6 157 5 l146 -1 2 34 3 35 -161 0 -160 0 3 140 4
140 -54 0 -53 0 0 -140z"/>
<path d="M3849 6076 c0 -1 -1 -16 -2 -34 l-2 -32 158 0 159 0 -3 -47 c-3 -62
-17 -104 -42 -125 -21 -19 -27 -20 -122 -21 l-60 0 1 -406 1 -406 274 0 274 0
0 405 1 406 -116 0 c-63 -1 -118 0 -122 2 -4 1 0 19 8 38 10 23 14 58 12 95
l-4 59 172 0 172 0 -3 33 -2 32 -377 1 c-207 0 -376 0 -377 0z m296 -328 c76
5 222 7 233 4 8 -3 12 -31 12 -96 l0 -93 -172 2 c-95 1 -176 3 -179 4 -9 2 -6
175 3 182 5 3 26 4 46 1 20 -3 46 -4 57 -4z m245 -337 l0 -96 -178 0 -177 0
-1 96 -1 96 179 0 178 -1 0 -95z m0 -247 c0 -93 0 -94 -25 -95 -14 0 -90 -1
-170 -1 -80 0 -149 1 -154 1 -5 1 -8 43 -8 95 l1 94 178 1 178 0 0 -95z"/>
<path d="M5310 5379 c-19 -12 -41 -30 -48 -40 -7 -10 -18 -24 -25 -31 -7 -7
-68 -80 -136 -163 -68 -82 -140 -170 -161 -195 -49 -57 -171 -205 -330 -400
-69 -84 -130 -157 -135 -164 -6 -6 -30 -36 -55 -66 -25 -30 -53 -64 -62 -75
-23 -28 -232 -281 -273 -330 -18 -22 -124 -151 -236 -286 -112 -135 -220 -265
-239 -289 -19 -24 -106 -129 -193 -234 -87 -105 -173 -209 -192 -231 -115
-141 -331 -402 -340 -411 -5 -6 -23 -28 -40 -50 -16 -21 -45 -55 -62 -77 l-33
-39 0 835 c0 714 -2 840 -15 870 -44 105 -202 109 -253 6 -17 -34 -18 -96 -17
-1090 0 -1044 0 -1054 20 -1089 12 -19 37 -43 55 -53 44 -22 122 -18 152 9 17
15 196 228 406 484 20 24 71 85 112 135 41 49 149 180 239 290 91 109 173 208
182 220 26 30 286 344 530 640 118 143 222 269 231 280 9 11 87 106 174 210
86 105 173 210 194 235 180 218 341 413 371 450 20 25 52 63 71 84 l34 39 -1
-819 c0 -450 3 -835 8 -854 15 -59 76 -110 131 -110 45 0 100 29 125 66 l24
35 1 1022 c1 562 -2 1046 -6 1076 -9 75 -53 119 -123 127 -40 4 -57 1 -85 -17z"/>
<path d="M3208 5322 l-28 -3 -1 -287 c0 -158 -2 -295 -4 -304 -3 -16 5 -18 54
-18 l58 0 -3 95 -4 95 38 1 c40 1 256 0 285 0 15 -1 17 -12 17 -96 l0 -95 46
0 c39 0 51 -5 81 -35 l35 -35 87 57 c123 81 231 163 231 176 0 3 -15 22 -34
43 l-34 38 -88 -70 c-83 -66 -185 -142 -210 -157 -8 -4 -11 79 -10 290 1 235
-2 297 -12 301 -14 5 -461 9 -504 4z m412 -213 l0 -146 -169 0 -168 0 -1 140
c-1 77 0 143 2 146 3 4 79 6 170 6 l166 0 0 -146z"/>
<path d="M4345 4930 l-39 -40 94 -95 c52 -52 98 -95 103 -95 4 0 24 16 45 35
l37 34 -100 101 -101 100 -39 -40z"/>
<path d="M4508 2573 c0 -4 -2 -50 -2 -102 l-1 -94 -35 -3 c-43 -5 -156 -12
-191 -13 -22 -1 -26 -6 -26 -26 l0 -26 81 6 c44 3 102 8 128 11 l46 5 7 -43
c9 -58 43 -165 61 -193 15 -22 13 -24 -28 -53 -70 -48 -163 -85 -243 -98 -22
-3 -41 -7 -43 -9 -1 -1 13 -14 33 -29 l36 -27 52 17 c64 21 139 57 195 96 l43
29 50 -50 c58 -58 119 -97 184 -117 41 -12 46 -11 54 4 9 17 44 184 39 187
-25 13 -58 23 -59 17 0 -4 -2 -14 -3 -22 -2 -8 -6 -41 -10 -72 l-7 -58 -37 16
c-47 19 -138 88 -153 115 -10 19 -5 27 33 68 25 25 60 66 78 90 l33 43 -24 19
c-13 10 -26 19 -29 19 -3 0 -20 -25 -39 -55 -19 -30 -49 -69 -68 -86 l-32 -32
-21 47 c-24 57 -31 88 -33 140 -2 36 1 40 23 42 73 5 259 17 283 18 15 1 27 5
27 9 0 4 0 16 0 27 0 16 -6 18 -31 15 -45 -6 -217 -18 -269 -19 l-45 -1 -1 95
0 95 -27 3 c-15 2 -28 0 -29 -5z"/>
<path d="M4668 2559 c-16 -21 -15 -24 29 -78 25 -31 48 -57 52 -59 4 -1 15 6
25 17 18 19 17 22 -29 80 -27 34 -51 61 -54 61 -3 0 -14 -10 -23 -21z"/>
<path d="M3809 2508 c0 -29 -2 -66 -4 -83 -2 -16 -6 -56 -9 -89 -18 -178 -117
-343 -258 -431 -27 -17 -48 -32 -48 -35 1 -3 9 -16 20 -28 l20 -24 44 30 c124
84 202 191 251 345 l22 68 27 -73 c52 -141 157 -279 249 -327 25 -14 29 -13
49 7 12 12 20 23 17 25 -2 2 -28 18 -56 36 -157 98 -256 303 -257 529 l0 102
-33 0 -33 0 -1 -52z"/>
<path d="M5109 2535 c-1 0 -3 -154 -4 -342 l-2 -341 23 -5 c32 -6 34 -2 34 59
l0 53 198 -2 197 -2 -3 -52 c-2 -53 -2 -53 27 -53 l30 0 0 340 c-1 187 -4 341
-7 341 -5 1 -487 5 -493 4z m442 -57 c1 -15 1 -152 0 -185 l-1 -23 -195 0
-195 0 -1 30 c0 17 0 50 0 75 0 25 0 61 0 80 l1 35 195 0 c149 0 195 -3 196
-12z m0 -270 c3 -84 1 -190 -5 -195 -4 -4 -93 -8 -197 -8 l-189 0 -1 42 c-1
55 -1 127 0 156 l1 22 195 0 c180 0 195 -1 196 -17z"/>
<path d="M5822 2167 l-1 -323 27 2 c28 1 27 -3 31 100 1 20 5 21 216 21 l215
0 0 -58 c0 -47 3 -57 19 -62 10 -2 23 -2 28 2 5 3 9 139 9 324 l0 317 -272 0
-272 0 0 -323z m476 274 c10 -1 12 -47 10 -213 l-3 -212 -208 -1 c-115 0 -211
4 -214 9 -5 7 -8 394 -4 416 1 4 365 5 419 1z"/>
<path d="M3105 1501 c1 -69 0 -131 -2 -136 -2 -6 -52 -10 -127 -9 l-123 1 1
-26 1 -26 105 -2 c58 -1 114 -2 125 -2 20 -1 20 -7 20 -168 l0 -168 -157 0
c-131 0 -158 -2 -161 -15 -10 -40 -8 -40 354 -40 l349 0 0 28 0 27 -162 0
-163 0 -2 168 -2 167 37 1 c20 1 79 1 130 0 l92 -1 0 29 0 29 -127 -1 -128 -2
-1 134 -1 135 -29 1 -30 1 1 -125z"/>
<path d="M6055 1529 c-55 -94 -132 -173 -216 -226 -33 -20 -59 -38 -59 -40 0
-2 7 -15 16 -28 l16 -25 47 32 c25 17 56 40 69 51 l22 20 0 -21 c0 -21 4 -22
71 -21 40 1 74 -3 78 -9 3 -6 5 -30 3 -54 l-4 -44 -106 1 c-104 0 -107 -1
-110 -23 -3 -23 -2 -23 80 -22 46 1 95 1 111 1 l27 -1 0 -94 0 -93 -46 0 c-40
0 -44 2 -31 15 13 12 10 23 -26 83 -23 38 -47 69 -53 69 -17 0 -47 -37 -35
-44 10 -6 71 -108 71 -119 0 -2 -33 -4 -72 -3 -72 2 -91 -5 -81 -31 4 -10 66
-13 318 -13 l312 0 -4 23 c-4 23 -7 23 -103 21 l-98 -3 40 70 c39 67 40 70 22
84 -10 8 -22 15 -26 15 -3 0 -28 -38 -54 -85 -64 -115 -79 -112 -79 14 l0 93
118 -1 c117 -2 117 -2 117 21 0 24 0 24 -119 23 l-119 -1 2 55 2 55 82 -2 c79
-1 82 -1 78 21 -3 22 -6 22 -167 23 -90 1 -170 2 -178 3 -7 0 10 26 39 58 29
32 64 75 78 95 13 21 28 38 31 38 4 0 25 -23 46 -52 50 -64 122 -123 200 -159
73 -35 77 -35 92 -3 10 21 9 26 -5 30 -73 24 -147 63 -196 107 -56 48 -110
123 -103 141 4 11 -29 36 -47 36 -2 0 -25 -37 -51 -81z"/>
<path d="M5209 1578 c-1 -2 -2 -116 -3 -254 l-1 -251 -30 -59 c-22 -42 -44
-68 -76 -90 -45 -30 -46 -31 -28 -52 9 -12 21 -22 25 -22 4 0 26 16 50 35 62
51 111 155 113 240 l1 30 140 0 140 0 0 -106 c0 -118 -5 -128 -59 -122 -33 3
-33 2 -27 -28 3 -17 6 -35 6 -39 0 -4 21 -4 48 1 50 10 81 36 83 73 4 61 5
623 1 634 -3 9 -51 12 -193 12 -104 0 -190 -1 -190 -2z m331 -120 l0 -73 -117
2 c-65 1 -128 2 -140 2 -22 1 -23 5 -23 71 l0 70 140 0 140 0 0 -72z m0 -186
l0 -69 -140 0 -140 0 0 68 0 69 140 0 140 0 0 -68z"/>
<path d="M3600 1190 l0 -340 28 0 29 0 -2 64 -1 65 213 0 c162 1 213 -2 214
-12 0 -6 1 -34 2 -62 2 -46 4 -50 28 -53 l26 -3 0 339 0 339 -268 2 -269 1 0
-340z m477 277 c3 -6 7 -106 7 -224 l1 -213 -215 0 -216 0 2 223 c1 122 2 222
3 223 0 1 93 1 206 1 129 0 208 -4 212 -10z"/>
<path d="M4302 1265 l0 -30 331 0 332 1 3 29 3 30 -335 0 -334 0 0 -30z"/>
</g>
</svg>
